<svg width="512" height="512" xmlns="http://www.w3.org/2000/svg" xmlns:svg="http://www.w3.org/2000/svg">
 <title>1111 2222 3333</title>
 <g>
  <title>Layer 1</title>
  <g class="1" id="svg_1">
   <path id="svg_2" fill="#a4d15f" d="m406.069,512l-300.138,0c-58.5,0 -105.931,-47.431 -105.931,-105.931l0,-300.138c0,-58.5 47.431,-105.931 105.931,-105.931l300.138,0c58.5,0 105.931,47.431 105.931,105.931l0,300.138c0,58.5 -47.431,105.931 -105.931,105.931"/>
   <g id="svg_3">
    <path id="svg_6" fill="#FFFFFF" d="m231.142,335.276c-2.083,0 -4.175,-0.733 -5.853,-2.225c-3.646,-3.231 -3.981,-8.819 -0.75,-12.465l65.342,-73.64l-65.404,-73.525c-3.249,-3.646 -2.913,-9.225 0.724,-12.465c3.637,-3.249 9.225,-2.913 12.465,0.724l70.621,79.386c2.975,3.346 2.975,8.377 0.009,11.732l-70.541,79.51c-1.749,1.97 -4.176,2.968 -6.613,2.968"/>
   </g>
  </g>
  <g id="svg_7"/>
  <g id="svg_8"/>
  <g id="svg_9"/>
  <g id="svg_10"/>
  <g id="svg_11"/>
  <g id="svg_12"/>
  <g id="svg_13"/>
  <g id="svg_14"/>
  <g id="svg_15"/>
  <g id="svg_16"/>
  <g id="svg_17"/>
  <g id="svg_18"/>
  <g id="svg_19"/>
  <g id="svg_20"/>
  <g id="svg_21"/>
 </g>
</svg>