<?xml version="1.0" encoding="iso-8859-1"?>
<!-- Generator: Adobe Illustrator 19.0.0, SVG Export Plug-In . SVG Version: 6.00 Build 0)  -->
<svg version="1.1" id="Capa_1" xmlns="http://www.w3.org/2000/svg" xmlns:xlink="http://www.w3.org/1999/xlink" x="0px" y="0px"
	 viewBox="0 0 512.019 512.019" style="enable-background:new 0 0 512.019 512.019;" xml:space="preserve">
<path style="fill:#4CAF50;" d="M327.571,184.467L252.904,109.8c-4.165-4.164-10.917-4.164-15.083,0l-85.333,85.333
	c-4.164,4.165-4.164,10.917,0,15.083l74.667,74.667c4.165,4.164,10.917,4.164,15.083,0l85.333-85.333
	C331.735,195.384,331.735,188.632,327.571,184.467z"/>
<path style="fill:#455A64;" d="M505.427,0.83c-3.985-1.654-8.574-0.745-11.627,2.304L3.134,493.8
	c-4.171,4.16-4.179,10.914-0.019,15.085c2.006,2.011,4.731,3.139,7.571,3.134h490.667c5.891,0,10.667-4.776,10.667-10.667V10.686
	C512.018,6.369,509.416,2.479,505.427,0.83z"/>
<g>
	<path style="fill:#FFC107;" d="M96.019,341.352c-5.891,0-10.667-4.776-10.667-10.667v-42.667c0-5.891,4.776-10.667,10.667-10.667
		c5.891,0,10.667,4.776,10.667,10.667v16.917l45.781-45.781c4.237-4.092,10.99-3.975,15.083,0.262c3.992,4.134,3.992,10.687,0,14.82
		l-64,64C101.551,340.232,98.843,341.352,96.019,341.352z"/>
	<path style="fill:#FFC107;" d="M138.686,341.352H96.019c-5.891,0-10.667-4.776-10.667-10.667s4.776-10.667,10.667-10.667h42.667
		c5.891,0,10.667,4.776,10.667,10.667S144.577,341.352,138.686,341.352z"/>
</g>
<g>
	<path style="fill:#FAFAFA;" d="M288.019,384.019c-5.891,0-10.667-4.776-10.667-10.667v-85.333c0-5.891,4.776-10.667,10.667-10.667
		c5.891,0,10.667,4.776,10.667,10.667v59.584l13.781-13.781c4.237-4.093,10.99-3.975,15.083,0.262
		c3.993,4.134,3.993,10.687,0,14.821l-32,32C293.551,382.898,290.843,384.018,288.019,384.019z"/>
	<path style="fill:#FAFAFA;" d="M288.019,384.019c-2.831,0.005-5.548-1.115-7.552-3.115l-32-32
		c-4.092-4.237-3.975-10.99,0.262-15.083c4.134-3.992,10.687-3.992,14.82,0l32,32c4.159,4.172,4.149,10.926-0.023,15.085
		C293.533,382.894,290.834,384.013,288.019,384.019z"/>
</g>
<path d="M501.352,512.019H10.686C4.795,512.03,0.011,507.263,0,501.372c-0.005-2.84,1.123-5.565,3.134-7.571L493.8,3.134
	c4.16-4.171,10.914-4.179,15.085-0.019c2.011,2.006,3.139,4.731,3.134,7.571v490.667
	C512.019,507.243,507.243,512.019,501.352,512.019z M36.435,490.686h454.251V36.435L36.435,490.686z"/>
<path d="M234.686,288.019c-2.831,0.005-5.548-1.115-7.552-3.115l-74.667-74.667c-4.164-4.165-4.164-10.917,0-15.083l85.333-85.333
	c4.165-4.164,10.917-4.164,15.083,0l74.667,74.667c4.164,4.165,4.164,10.917,0,15.083l-85.333,85.333
	C240.217,286.898,237.509,288.018,234.686,288.019z M175.102,202.686l59.584,59.584l70.251-70.251l-59.584-59.584L175.102,202.686z"
	/>
<path d="M96.019,341.352c-5.891,0-10.667-4.776-10.667-10.667v-42.667c0-5.891,4.776-10.667,10.667-10.667
	c5.891,0,10.667,4.776,10.667,10.667v16.917l45.781-45.781c4.237-4.092,10.99-3.975,15.083,0.262c3.992,4.134,3.992,10.687,0,14.82
	l-64,64C101.551,340.232,98.843,341.352,96.019,341.352z"/>
<path d="M138.686,341.352H96.019c-5.891,0-10.667-4.776-10.667-10.667s4.776-10.667,10.667-10.667h42.667
	c5.891,0,10.667,4.776,10.667,10.667S144.577,341.352,138.686,341.352z"/>
<g>
</g>
<g>
</g>
<g>
</g>
<g>
</g>
<g>
</g>
<g>
</g>
<g>
</g>
<g>
</g>
<g>
</g>
<g>
</g>
<g>
</g>
<g>
</g>
<g>
</g>
<g>
</g>
<g>
</g>
</svg>
